<?xml version="1.0" encoding="UTF-8" standalone="no"?>
<!-- Created with Inkscape (http://www.inkscape.org/) -->

<svg
   xmlns:dc="http://purl.org/dc/elements/1.1/"
   xmlns:cc="http://creativecommons.org/ns#"
   xmlns:rdf="http://www.w3.org/1999/02/22-rdf-syntax-ns#"
   xmlns:svg="http://www.w3.org/2000/svg"
   xmlns="http://www.w3.org/2000/svg"
   xmlns:sodipodi="http://sodipodi.sourceforge.net/DTD/sodipodi-0.dtd"
   xmlns:inkscape="http://www.inkscape.org/namespaces/inkscape"
   width="3.619122mm"
   height="3.619122mm"
   viewBox="0 0 3.6191221 3.619122"
   version="1.1"
   id="svg38"
   inkscape:version="0.92.5 (2060ec1f9f, 2020-04-08)"
   sodipodi:docname="favicon.svg">
  <defs
     id="defs32" />
  <sodipodi:namedview
     id="base"
     pagecolor="#ffffff"
     bordercolor="#666666"
     borderopacity="1.0"
     inkscape:pageopacity="0.0"
     inkscape:pageshadow="2"
     inkscape:zoom="22.4"
     inkscape:cx="8.5280841"
     inkscape:cy="6.695179"
     inkscape:document-units="mm"
     inkscape:current-layer="layer1"
     showgrid="false"
     inkscape:window-width="1300"
     inkscape:window-height="704"
     inkscape:window-x="66"
     inkscape:window-y="27"
     inkscape:window-maximized="1" />
  <metadata
     id="metadata35">
    <rdf:RDF>
      <cc:Work
         rdf:about="">
        <dc:format>image/svg+xml</dc:format>
        <dc:type
           rdf:resource="http://purl.org/dc/dcmitype/StillImage" />
        <dc:title />
      </cc:Work>
    </rdf:RDF>
  </metadata>
  <g
     inkscape:label="Camada 1"
     inkscape:groupmode="layer"
     id="layer1"
     transform="translate(7.5311358,-205.5321)">
    <circle
       style="fill:#26a69a;fill-opacity:1;stroke:#26a69a;stroke-width:0.26458332;stroke-opacity:1"
       id="path9"
       cx="-5.7215748"
       cy="207.34166"
       r="1.6772693" />
    <path
       d="m -7.0946182,207.88601 c 0.0075,0.0853 0.01345,0.18699 0.02243,0.25429 0.009,0.0673 0.02095,0.1002 0.0404,0.11964 0.01943,0.0195 0.04636,0.0254 0.131635,0.0269 0.085253,0.002 0.2288271,-0.001 0.3066099,-0.009 0.077783,-0.007 0.089731,-0.0194 0.094227,-0.0479 0.00448,-0.0284 0.00151,-0.0733 0.00749,-0.0957 0.00599,-0.0224 0.020921,-0.0224 0.1480788,-0.0135 0.1271394,0.009 0.3664447,0.0269 0.4906099,0.0359 0.1241484,0.009 0.1330966,0.009 0.2632274,10e-4 0.1301221,-0.007 0.3814618,-0.0225 0.5070711,-0.0239 0.1256096,-10e-4 0.1206069,-0.0254 0.1280678,-0.004 0.00747,0.0209 0.027481,0.0867 0.054403,0.10615 0.026922,0.0194 0.065817,0.0284 0.1495829,0.0329 0.083765,0.004 0.212409,0.004 0.2826963,-0.001 0.070296,-0.006 0.082261,-0.018 0.088244,-0.0628 0.00598,-0.0449 0.00737,-0.14502 0.011845,-0.22429 0.00448,-0.0793 0.012113,-0.13766 0.016589,-0.23638 0.00448,-0.0987 0.00448,-0.21538 0.00148,-0.31262 -0.00299,-0.0972 -0.00897,-0.175 -0.017941,-0.24231 -0.00898,-0.0673 -0.02095,-0.12414 -0.04189,-0.16452 -0.020939,-0.0404 -0.050861,-0.0643 -0.086757,-0.0838 -0.035905,-0.0195 -0.077766,-0.0344 -0.1061745,-0.0568 -0.028426,-0.0225 -0.043391,-0.0524 -0.062826,-0.12716 -0.019452,-0.0748 -0.043383,-0.19443 -0.062826,-0.27521 -0.019452,-0.0808 -0.034409,-0.12266 -0.055348,-0.15406 -0.020948,-0.0314 -0.04787,-0.0523 -0.089757,-0.0673 -0.041879,-0.015 -0.098705,-0.0239 -0.1749748,-0.0359 -0.076296,-0.012 -0.172035,-0.0269 -0.2961748,-0.0344 -0.1241481,-0.007 -0.2767137,-0.007 -0.4188098,-0.007 -0.1420961,0 -0.2737056,0 -0.3828886,0.003 -0.1092089,0.003 -0.1959655,0.009 -0.2662613,0.0209 -0.070313,0.012 -0.1241398,0.0299 -0.1675053,0.0524 -0.043391,0.0224 -0.076304,0.0493 -0.1032261,0.0942 -0.026922,0.0449 -0.04787,0.1077 -0.065818,0.1795 -0.017947,0.0718 -0.032905,0.15255 -0.050861,0.21837 -0.017947,0.0658 -0.038887,0.11667 -0.061313,0.1436 -0.02245,0.0269 -0.04637,0.0299 -0.06879,0.0359 -0.02244,0.006 -0.04338,0.0149 -0.06282,0.0299 -0.01946,0.015 -0.03741,0.0359 -0.05385,0.0808 -0.01647,0.0449 -0.03143,0.11367 -0.04339,0.18846 -0.01197,0.0748 -0.02094,0.15555 -0.02542,0.22883 -0.0045,0.0733 -0.0045,0.13913 0,0.20643 0.0045,0.0673 0.01345,0.1361 0.02094,0.22136 z m 2.5968747,-0.36914 c -0.025831,-3.6e-4 -0.076708,0.006 -0.1232113,0.0149 -0.04646,0.009 -0.088485,0.0191 -0.1268472,0.0303 -0.038346,0.0112 -0.073021,0.0232 -0.1010688,0.0355 -0.028022,0.0123 -0.049408,0.0251 -0.067115,0.0393 -0.017682,0.0142 -0.031727,0.0299 -0.045729,0.0498 -0.014002,0.0198 -0.028039,0.0437 -0.03838,0.0654 -0.01034,0.0217 -0.016933,0.0411 -0.019881,0.0591 -0.00297,0.018 -0.00225,0.0344 -4.31e-5,0.0486 0.00222,0.0142 0.00592,0.0262 0.00999,0.0325 0.00406,0.006 0.00847,0.007 0.019151,0.007 0.01071,-3.6e-4 0.027704,-0.002 0.1003382,-0.0165 0.072668,-0.0146 0.2010026,-0.0422 0.2751235,-0.0579 0.074164,-0.0157 0.094089,-0.0194 0.1069911,-0.0213 0.012901,-0.002 0.018799,-0.002 0.023217,-0.006 0.00443,-0.004 0.00739,-0.0123 0.00961,-0.0528 0.0022,-0.0404 0.00368,-0.11291 0.00442,-0.15367 7.409e-4,-0.0408 7.409e-4,-0.0497 3.44e-4,-0.058 -3.44e-4,-0.008 -0.00108,-0.0157 -0.026905,-0.0161 z m -2.4891537,-0.008 c 0.02618,-3.6e-4 0.07777,0.006 0.124897,0.0149 0.047113,0.009 0.089731,0.0191 0.1286175,0.0303 0.038896,0.0112 0.074044,0.0232 0.1024699,0.0355 0.028409,0.0123 0.050087,0.0251 0.068035,0.0393 0.017949,0.0142 0.032174,0.0299 0.046382,0.0498 0.0142,0.0198 0.028426,0.0437 0.038913,0.0654 0.010462,0.0217 0.017174,0.0411 0.020166,0.0591 0.00299,0.0179 0.00225,0.0344 1.72e-5,0.0486 -0.00225,0.0142 -0.006,0.0262 -0.01011,0.0325 -0.00412,0.006 -0.00861,0.007 -0.019436,0.007 -0.010848,-3.6e-4 -0.028065,-0.002 -0.1017219,-0.0165 -0.073665,-0.0146 -0.2037961,-0.0422 -0.2789487,-0.0579 -0.07516,-0.0157 -0.09537,-0.0194 -0.108452,-0.0213 -0.01309,-0.002 -0.01907,-0.002 -0.02355,-0.006 -0.0045,-0.004 -0.0075,-0.0123 -0.0097,-0.0528 -0.0023,-0.0404 -0.0037,-0.11291 -0.0045,-0.15367 -7.68e-4,-0.0408 -7.68e-4,-0.0497 -3.71e-4,-0.058 3.71e-4,-0.008 0.0011,-0.0157 0.02729,-0.0161 z m 0.6109684,-1.1737 c 0.089731,-0.01 0.2572615,-0.0217 0.4068445,-0.0292 0.1495573,-0.007 0.2811753,-0.0105 0.3986017,-0.008 0.1174091,0.002 0.2206266,0.01 0.3118617,0.0187 0.091235,0.009 0.1705224,0.0194 0.2198791,0.0277 0.049348,0.008 0.068809,0.0142 0.085252,0.0254 0.016444,0.0112 0.029913,0.0277 0.040391,0.0561 0.010462,0.0284 0.017931,0.0688 0.032157,0.11966 0.014208,0.0508 0.035148,0.11218 0.052348,0.17201 0.017193,0.0598 0.03067,0.11816 0.040391,0.1578 0.00971,0.0396 0.015695,0.0606 0.017957,0.0778 0.00222,0.0172 7.408e-4,0.0307 -0.018703,0.0314 -0.01946,7.3e-4 -0.056844,-0.0112 -0.1346266,-0.0224 -0.077782,-0.0112 -0.1959388,-0.0217 -0.3125918,-0.0322 -0.1166782,-0.0105 -0.23187,-0.0209 -0.3448008,-0.0262 -0.112922,-0.005 -0.2235919,-0.005 -0.3223228,-0.003 -0.098722,0.002 -0.1854615,0.007 -0.2632443,0.0127 -0.077783,0.006 -0.1465659,0.0135 -0.2168617,0.0187 -0.070313,0.005 -0.1421133,0.008 -0.1929744,0.0112 -0.050852,0.003 -0.080774,0.006 -0.095731,0.005 -0.014957,-0.002 -0.014957,-0.007 0.00375,-0.0927 0.018703,-0.0853 0.056087,-0.24979 0.080774,-0.34178 0.024688,-0.092 0.036652,-0.11144 0.050861,-0.12489 0.0142,-0.0135 0.030661,-0.0209 0.04487,-0.0284 0.014208,-0.007 0.026175,-0.015 0.1159219,-0.0247 z"
       style="fill:#ffffff;fill-rule:evenodd;stroke:#ffffff;stroke-width:0.01856679;stroke-linecap:butt;stroke-linejoin:miter;stroke-dasharray:none"
       id="path6"
       inkscape:connector-curvature="0" />
  </g>
</svg>
