<?xml version="1.0" encoding="UTF-8" standalone="no"?>
<!-- Created with Inkscape (http://www.inkscape.org/) -->

<svg
   xmlns:dc="http://purl.org/dc/elements/1.1/"
   xmlns:cc="http://creativecommons.org/ns#"
   xmlns:rdf="http://www.w3.org/1999/02/22-rdf-syntax-ns#"
   xmlns:svg="http://www.w3.org/2000/svg"
   xmlns="http://www.w3.org/2000/svg"
   xmlns:sodipodi="http://sodipodi.sourceforge.net/DTD/sodipodi-0.dtd"
   xmlns:inkscape="http://www.inkscape.org/namespaces/inkscape"
   width="69.848518mm"
   height="18.172426mm"
   viewBox="0 0 69.848518 18.172426"
   version="1.1"
   id="svg4584"
   inkscape:version="0.92.5 (2060ec1f9f, 2020-04-08)"
   sodipodi:docname="logo.svg"
   inkscape:export-filename="/home/user/Downloads/logo.png"
   inkscape:export-xdpi="96"
   inkscape:export-ydpi="96">
  <defs
     id="defs4578" />
  <sodipodi:namedview
     id="base"
     pagecolor="#ffffff"
     bordercolor="#666666"
     borderopacity="1.0"
     inkscape:pageopacity="0.0"
     inkscape:pageshadow="2"
     inkscape:zoom="2.8"
     inkscape:cx="144.0693"
     inkscape:cy="5.2495068"
     inkscape:document-units="mm"
     inkscape:current-layer="layer1"
     showgrid="false"
     inkscape:window-width="1300"
     inkscape:window-height="704"
     inkscape:window-x="66"
     inkscape:window-y="27"
     inkscape:window-maximized="1" />
  <metadata
     id="metadata4581">
    <rdf:RDF>
      <cc:Work
         rdf:about="">
        <dc:format>image/svg+xml</dc:format>
        <dc:type
           rdf:resource="http://purl.org/dc/dcmitype/StillImage" />
        <dc:title></dc:title>
      </cc:Work>
    </rdf:RDF>
  </metadata>
  <g
     inkscape:label="Camada 1"
     inkscape:groupmode="layer"
     id="layer1"
     transform="translate(76.501639,-138.99117)">
    <path
       d="m -67.415427,138.99117 a 9.0862129,9.0862129 0 0 1 9.086214,9.08621 9.0862129,9.0862129 0 1 1 -9.086214,-9.08621 z"
       style="fill:#c3c63b;fill-rule:evenodd;stroke-width:0.3548997"
       id="path2"
       inkscape:connector-curvature="0" />
    <path
       d="m -67.415427,138.99117 a 9.0862129,9.0862129 0 0 1 9.086214,9.08621 9.0862129,9.0862129 0 1 1 -9.086214,-9.08621 z"
       style="fill:#26a69a;fill-rule:evenodd;stroke-width:0.3548997"
       id="path4"
       inkscape:connector-curvature="0" />
    <path
       d="m -74.14436,151.29632 c 0.03691,0.42152 0.06651,0.92434 0.11087,1.25702 0.04436,0.33279 0.103524,0.49537 0.199702,0.59144 0.09607,0.0962 0.229159,0.12574 0.650673,0.13309 0.421444,0.007 1.131172,-0.007 1.515671,-0.0444 0.384498,-0.0369 0.443553,-0.0961 0.46577,-0.23661 0.02215,-0.14044 0.0074,-0.36218 0.03705,-0.47312 0.02956,-0.11087 0.103418,-0.11087 0.731945,-0.0665 0.628456,0.0444 1.811444,0.13309 2.425207,0.17745 0.613693,0.0444 0.657949,0.0444 1.301204,0.007 0.643222,-0.0369 1.885654,-0.11098 2.506587,-0.11829 0.620897,-0.007 0.59616,-0.12556 0.63307,-0.022 0.03691,0.10353 0.13582,0.42865 0.268908,0.52472 0.133087,0.0961 0.325336,0.14054 0.739433,0.16269 0.414061,0.0222 1.049971,0.0222 1.397453,-0.007 0.347482,-0.0296 0.406609,-0.0887 0.436207,-0.31058 0.02956,-0.22181 0.03641,-0.71686 0.05856,-1.1087 0.02211,-0.39185 0.05984,-0.68049 0.08198,-1.16851 0.02211,-0.48799 0.02211,-1.06466 0.0073,-1.54534 -0.01475,-0.48057 -0.04432,-0.86507 -0.08868,-1.19775 -0.0444,-0.33279 -0.103525,-0.61366 -0.20705,-0.81325 -0.103524,-0.19971 -0.25141,-0.31799 -0.42886,-0.4141 -0.177486,-0.0961 -0.384392,-0.1701 -0.524862,-0.28097 -0.14054,-0.11095 -0.214465,-0.25883 -0.310537,-0.62857 -0.09618,-0.3697 -0.214501,-0.96114 -0.310572,-1.36043 -0.09618,-0.39927 -0.170104,-0.60631 -0.273628,-0.76155 -0.103524,-0.1553 -0.236612,-0.25872 -0.44366,-0.33268 -0.207013,-0.0739 -0.487916,-0.11832 -0.864962,-0.17745 -0.377152,-0.0592 -0.850375,-0.13312 -1.464067,-0.17003 -0.613658,-0.037 -1.367855,-0.037 -2.070273,-0.037 -0.702382,0 -1.352984,0 -1.892715,0.0148 -0.539838,0.0148 -0.968699,0.0444 -1.316181,0.10352 -0.347554,0.0591 -0.613657,0.14785 -0.828017,0.25883 -0.214501,0.11087 -0.377187,0.24385 -0.510275,0.4657 -0.133087,0.22181 -0.236611,0.53239 -0.325336,0.88729 -0.08872,0.35493 -0.162686,0.75412 -0.251411,1.07946 -0.08872,0.32534 -0.192249,0.57675 -0.30312,0.70983 -0.110942,0.13313 -0.229159,0.14789 -0.340029,0.17749 -0.110942,0.0296 -0.214466,0.0739 -0.310537,0.14789 -0.09618,0.0739 -0.184903,0.17745 -0.266211,0.39926 -0.08138,0.22185 -0.155304,0.56187 -0.214466,0.93157 -0.05916,0.3697 -0.103524,0.76889 -0.12567,1.13118 -0.02222,0.36235 -0.02222,0.68769 0,1.0204 0.02215,0.33279 0.06651,0.67282 0.103525,1.09423 z m 12.83697,-1.82471 c -0.127693,-0.002 -0.379174,0.0314 -0.609043,0.0738 -0.229691,0.0426 -0.437414,0.0944 -0.627072,0.1498 -0.189517,0.0554 -0.360933,0.11456 -0.499593,0.17553 -0.138517,0.0611 -0.244242,0.12386 -0.33176,0.19406 -0.08741,0.0703 -0.15683,0.14799 -0.226071,0.24598 -0.06921,0.098 -0.138624,0.21621 -0.189729,0.32342 -0.05111,0.10725 -0.08369,0.20332 -0.09827,0.29205 -0.01469,0.0887 -0.01107,0.17014 -2.13e-4,0.24034 0.01107,0.0702 0.02928,0.12939 0.0494,0.16077 0.02002,0.0315 0.04184,0.0351 0.09465,0.0333 0.05291,-0.002 0.13692,-0.009 0.495972,-0.0814 0.359265,-0.0721 0.993648,-0.20875 1.360047,-0.28641 0.366576,-0.0777 0.46506,-0.0961 0.528836,-0.10533 0.06381,-0.009 0.09298,-0.009 0.11481,-0.0296 0.02193,-0.0203 0.03652,-0.061 0.04749,-0.26075 0.01086,-0.19959 0.01821,-0.55815 0.02182,-0.75962 0.0036,-0.20152 0.0036,-0.24588 0.0017,-0.28651 -0.0017,-0.0407 -0.0053,-0.0777 -0.132981,-0.0795 z m -12.304479,-0.0405 c 0.129361,-0.002 0.384392,0.0314 0.617384,0.0739 0.232885,0.0426 0.443553,0.0943 0.635802,0.14976 0.19225,0.0554 0.366009,0.1146 0.506549,0.17557 0.140434,0.061 0.247578,0.12383 0.336303,0.19406 0.08873,0.0703 0.15903,0.14799 0.229265,0.24595 0.07023,0.098 0.14054,0.2162 0.192355,0.32345 0.05171,0.10725 0.08489,0.20332 0.09969,0.29205 0.0148,0.0887 0.01118,0.1701 1.07e-4,0.24034 -0.01118,0.0702 -0.02967,0.12936 -0.05001,0.16077 -0.02034,0.0315 -0.04255,0.0351 -0.09607,0.0333 -0.05362,-0.002 -0.13873,-0.009 -0.502822,-0.0814 -0.364163,-0.072 -1.007418,-0.20876 -1.378927,-0.28644 -0.371545,-0.0777 -0.471414,-0.0961 -0.536112,-0.1053 -0.0647,-0.009 -0.09426,-0.009 -0.116407,-0.0296 -0.02222,-0.0203 -0.03702,-0.061 -0.04809,-0.26075 -0.01104,-0.19959 -0.01849,-0.55815 -0.02211,-0.75966 -0.0037,-0.20148 -0.0037,-0.24587 -0.0018,-0.28651 0.0018,-0.0406 0.0054,-0.0777 0.134897,-0.0795 z m 3.020161,-5.80191 c 0.443554,-0.0481 1.271712,-0.10725 2.01111,-0.14416 0.739327,-0.037 1.389929,-0.0518 1.970403,-0.0407 0.580368,0.0111 1.090607,0.0481 1.541614,0.0925 0.450971,0.0444 0.842922,0.0961 1.08688,0.13682 0.243958,0.0406 0.340136,0.0702 0.421443,0.12567 0.08127,0.0554 0.147887,0.13681 0.199667,0.27724 0.05171,0.14044 0.08865,0.34014 0.15896,0.59155 0.07023,0.25131 0.173759,0.5545 0.258757,0.85027 0.085,0.29567 0.151613,0.58409 0.199702,0.78007 0.04798,0.19587 0.07755,0.29939 0.08873,0.38439 0.01107,0.085 0.0036,0.15161 -0.09245,0.15534 -0.09618,0.004 -0.280974,-0.0555 -0.665473,-0.11098 -0.38454,-0.0554 -0.968598,-0.10721 -1.545275,-0.15892 -0.576747,-0.0517 -1.146148,-0.10352 -1.70437,-0.1294 -0.558257,-0.0258 -1.1053,-0.0258 -1.593322,-0.0148 -0.488023,0.0111 -0.916777,0.0333 -1.301276,0.0629 -0.384498,0.0296 -0.724563,0.0665 -1.072009,0.0925 -0.347589,0.0259 -0.702525,0.0406 -0.953935,0.0553 -0.251376,0.0148 -0.399263,0.0296 -0.473224,0.0223 -0.07393,-0.007 -0.07393,-0.037 0.01853,-0.45836 0.09245,-0.42151 0.277248,-1.23476 0.399298,-1.6895 0.122014,-0.45473 0.181176,-0.55091 0.251375,-0.61738 0.07023,-0.0666 0.151614,-0.10353 0.221848,-0.14043 0.0702,-0.0371 0.129361,-0.0741 0.573021,-0.12206 z"
       style="fill:#ffffff;fill-rule:evenodd;stroke:#ffffff;stroke-width:0.07665834;stroke-linecap:butt;stroke-linejoin:miter;stroke-dasharray:none"
       id="path6"
       inkscape:connector-curvature="0" />
    <path
       d="m -72.839962,146.13203 c -0.16549,0.0365 -0.265288,0.12525 -0.365085,0.17149 -0.09983,0.0463 -0.199667,0.0499 -0.284701,0.0426 -0.08503,-0.007 -0.155304,-0.0259 -0.24772,-0.0777 -0.09242,-0.0518 -0.206977,-0.13678 -0.279058,-0.21255 -0.07208,-0.0758 -0.101678,-0.14235 -0.125705,-0.22 -0.02403,-0.0777 -0.04248,-0.16638 -0.05174,-0.2551 -0.0092,-0.0887 -0.0092,-0.17742 -0.0055,-0.24396 0.0037,-0.0665 0.01107,-0.11087 0.0774,-0.12911 0.06637,-0.0182 0.191681,-0.0103 0.353302,0.002 0.161622,0.0127 0.359585,0.0303 0.514427,0.0645 0.154843,0.0343 0.266565,0.0852 0.323066,0.11126 0.0565,0.0261 0.05771,0.0273 0.07868,0.0445 0.02097,0.0173 0.06165,0.0505 0.07826,0.082 0.01664,0.0314 0.0092,0.061 0.01608,0.10203 0.0069,0.041 0.02793,0.0935 0.02619,0.15917 -0.0018,0.0657 -0.02637,0.14455 -0.07556,0.28016"
       style="fill:#ffffff;fill-rule:evenodd;stroke:#ffffff;stroke-width:0.07665834;stroke-linecap:butt;stroke-linejoin:miter;stroke-dasharray:none"
       id="path8"
       inkscape:connector-curvature="0" />
    <path
       d="m -61.963422,146.15599 c 0.162544,0.0365 0.260568,0.12524 0.358626,0.17149 0.09802,0.0462 0.196083,0.0499 0.279626,0.0426 0.08354,-0.007 0.152536,-0.0259 0.243319,-0.0777 0.09078,-0.0517 0.203322,-0.13674 0.274125,-0.21255 0.0708,-0.0758 0.09987,-0.14235 0.123469,-0.22 0.0236,-0.0777 0.04174,-0.16638 0.05082,-0.25507 0.0091,-0.0887 0.0091,-0.17741 0.0054,-0.24395 -0.0036,-0.0666 -0.01086,-0.11091 -0.07602,-0.12912 -0.06516,-0.0182 -0.188275,-0.0103 -0.347021,0.002 -0.158783,0.0127 -0.353232,0.0303 -0.505307,0.0646 -0.15211,0.0342 -0.261844,0.0852 -0.317351,0.11126 -0.05547,0.026 -0.05668,0.0273 -0.07726,0.0445 -0.02058,0.0172 -0.06054,0.0505 -0.07691,0.0819 -0.01633,0.0315 -0.009,0.061 -0.01576,0.10204 -0.0067,0.041 -0.02743,0.0935 -0.02573,0.1592 0.0017,0.0657 0.02587,0.14455 0.07421,0.28016"
       style="fill:#ffffff;fill-rule:evenodd;stroke:#ffffff;stroke-width:0.07665834;stroke-linecap:butt;stroke-linejoin:miter;stroke-dasharray:none"
       id="path10"
       inkscape:connector-curvature="0" />
    <text
       xml:space="preserve"
       style="font-style:normal;font-weight:normal;font-size:14.19598866px;line-height:1.25;font-family:sans-serif;letter-spacing:0px;word-spacing:0px;fill:#26a69a;fill-opacity:1;stroke:none;stroke-width:0.3548997"
       x="-56.537682"
       y="152.4019"
       id="text26"><tspan
         sodipodi:role="line"
         id="tspan24"
         x="-56.537682"
         y="152.4019"
         style="font-style:normal;font-variant:normal;font-weight:bold;font-stretch:normal;font-family:Ubuntu;-inkscape-font-specification:'Ubuntu Bold';fill:#26a69a;fill-opacity:1;stroke-width:0.3548997"><tspan
           style="font-style:normal;font-variant:normal;font-weight:normal;font-stretch:normal;font-family:Ubuntu;-inkscape-font-specification:Ubuntu;stroke:#26a69a;stroke-width:0.3548997;stroke-opacity:1"
           id="tspan4540">auto</tspan><tspan
           style="font-style:normal;font-variant:normal;font-weight:bold;font-stretch:normal;font-family:Ubuntu;-inkscape-font-specification:'Ubuntu Bold';stroke:#26a69a;stroke-width:0.3548997;stroke-opacity:1"
           id="tspan4536">car</tspan></tspan></text>
  </g>
</svg>
