<?xml version="1.0" encoding="UTF-8" standalone="no"?>
<!-- Created with Inkscape (http://www.inkscape.org/) -->

<svg
   xmlns:dc="http://purl.org/dc/elements/1.1/"
   xmlns:cc="http://creativecommons.org/ns#"
   xmlns:rdf="http://www.w3.org/1999/02/22-rdf-syntax-ns#"
   xmlns:svg="http://www.w3.org/2000/svg"
   xmlns="http://www.w3.org/2000/svg"
   xmlns:sodipodi="http://sodipodi.sourceforge.net/DTD/sodipodi-0.dtd"
   xmlns:inkscape="http://www.inkscape.org/namespaces/inkscape"
   width="49.93417mm"
   height="56.078541mm"
   viewBox="0 0 49.93417 56.078541"
   version="1.1"
   id="svg54"
   inkscape:version="0.92.5 (2060ec1f9f, 2020-04-08)"
   sodipodi:docname="logo-mobile.svg"
   inkscape:export-filename="/home/user/Downloads/logo-mobile.png"
   inkscape:export-xdpi="96"
   inkscape:export-ydpi="96">
  <defs
     id="defs48" />
  <sodipodi:namedview
     id="base"
     pagecolor="#ffffff"
     bordercolor="#666666"
     borderopacity="1.0"
     inkscape:pageopacity="0.0"
     inkscape:pageshadow="2"
     inkscape:zoom="0.7"
     inkscape:cx="148.70492"
     inkscape:cy="134.07346"
     inkscape:document-units="mm"
     inkscape:current-layer="layer1"
     showgrid="false"
     inkscape:window-width="1300"
     inkscape:window-height="704"
     inkscape:window-x="66"
     inkscape:window-y="27"
     inkscape:window-maximized="1" />
  <metadata
     id="metadata51">
    <rdf:RDF>
      <cc:Work
         rdf:about="">
        <dc:format>image/svg+xml</dc:format>
        <dc:type
           rdf:resource="http://purl.org/dc/dcmitype/StillImage" />
        <dc:title></dc:title>
      </cc:Work>
    </rdf:RDF>
  </metadata>
  <g
     inkscape:label="Camada 1"
     inkscape:groupmode="layer"
     id="layer1"
     transform="translate(-45.235071,-111.7141)">
    <path
       d="M 71.742073,111.7141 A 21.697416,21.697416 0 0 1 93.43949,133.41153 21.697416,21.697416 0 1 1 71.742073,111.7141 Z"
       style="fill:#c3c63b;fill-rule:evenodd;stroke-width:1.01465654"
       id="path2"
       inkscape:connector-curvature="0" />
    <path
       d="M 71.742073,111.7141 A 21.697416,21.697416 0 0 1 93.43949,133.41153 21.697416,21.697416 0 1 1 71.742073,111.7141 Z"
       style="fill:#26a69a;fill-rule:evenodd;stroke-width:1.01465654"
       id="path4"
       inkscape:connector-curvature="0" />
    <path
       d="m 55.673767,141.09813 c 0.08817,1.00656 0.158804,2.20731 0.264725,3.00167 0.105925,0.79467 0.247275,1.18289 0.476892,1.41229 0.229405,0.2297 0.547201,0.30027 1.553844,0.31791 1.006335,0.0191 2.701117,-0.0191 3.619277,-0.1058 0.918165,-0.0882 1.059203,-0.22934 1.11227,-0.56507 0.05285,-0.33518 0.01763,-0.86478 0.08836,-1.12981 0.07071,-0.26461 0.246968,-0.26461 1.747946,-0.15877 1.500778,0.1058 4.325581,0.31791 5.791255,0.42384 1.465469,0.1058 1.571095,0.1058 3.107184,0.0191 1.535987,-0.0882 4.502844,-0.26499 5.985559,-0.28264 1.482719,-0.0191 1.423665,-0.29989 1.511737,-0.0525 0.08817,0.24697 0.324397,1.02359 0.642178,1.25303 0.3178,0.22932 0.776921,0.33556 1.765706,0.38848 0.988781,0.0529 2.507315,0.0529 3.336999,-0.0191 0.829789,-0.0705 0.97103,-0.21207 1.04165,-0.74159 0.0706,-0.52976 0.08694,-1.71191 0.139821,-2.64764 0.05289,-0.93564 0.142966,-1.62488 0.19585,-2.7902 0.05285,-1.16544 0.05285,-2.54245 0.01765,-3.6902 -0.03528,-1.1476 -0.105926,-2.06576 -0.211842,-2.86024 -0.106156,-0.79468 -0.24739,-1.46536 -0.49457,-1.94203 -0.247162,-0.47681 -0.600373,-0.75936 -1.024094,-0.98876 -0.423824,-0.22972 -0.917961,-0.40621 -1.253307,-0.67092 -0.335554,-0.265 -0.512195,-0.61813 -0.741612,-1.501 -0.229635,-0.88284 -0.512096,-2.29513 -0.741613,-3.24859 -0.229634,-0.95348 -0.406163,-1.44792 -0.653335,-1.81856 -0.247277,-0.37084 -0.565062,-0.61796 -1.059505,-0.79449 -0.494342,-0.17641 -1.165131,-0.28263 -2.065436,-0.42372 -0.900609,-0.14112 -2.030734,-0.31791 -3.4961,-0.40608 -1.465469,-0.0882 -3.266383,-0.0882 -4.94371,-0.0882 -1.67733,0 -3.230872,0 -4.519686,0.0344 -1.289124,0.0345 -2.313215,0.10581 -3.143003,0.24697 -0.829989,0.14113 -1.465366,0.3532 -1.977259,0.61811 -0.5122,0.26462 -0.900713,0.5823 -1.218502,1.11205 -0.3178,0.52977 -0.565064,1.27129 -0.776923,2.11884 -0.211842,0.84752 -0.388409,1.80081 -0.600373,2.57772 -0.211841,0.77692 -0.459029,1.37719 -0.723754,1.69508 -0.265031,0.31791 -0.547304,0.35319 -0.812029,0.42371 -0.264917,0.0705 -0.512097,0.17641 -0.741513,0.3532 -0.229712,0.1768 -0.441577,0.4238 -0.63568,0.95348 -0.194392,0.52976 -0.370953,1.34176 -0.512201,2.22452 -0.141239,0.88283 -0.247161,1.83612 -0.300044,2.7012 -0.05308,0.86532 -0.05308,1.64224 0,2.43672 0.05285,0.79467 0.158805,1.6066 0.24716,2.61292 z m 30.653994,-4.35732 c -0.304915,-0.004 -0.905479,0.0751 -1.454406,0.17641 -0.548424,0.1016 -1.044487,0.2255 -1.497331,0.35779 -0.452639,0.13226 -0.861949,0.27344 -1.193033,0.41916 -0.330762,0.14574 -0.583227,0.29568 -0.792244,0.46342 -0.208697,0.16797 -0.374519,0.35357 -0.539797,0.58739 -0.165285,0.23393 -0.330993,0.51626 -0.453042,0.77236 -0.122068,0.25617 -0.199877,0.48549 -0.234697,0.69737 -0.0349,0.21169 -0.02647,0.40625 -5.1e-4,0.57386 0.02646,0.16759 0.06991,0.3091 0.117889,0.38396 0.0479,0.0752 0.09994,0.084 0.226069,0.0794 0.126435,-0.004 0.327003,-0.0231 1.184408,-0.19443 0.857792,-0.1718 2.372674,-0.4985 3.247612,-0.68395 0.875444,-0.18562 1.110644,-0.22934 1.262944,-0.25157 0.152284,-0.0231 0.221887,-0.0231 0.274043,-0.0705 0.05235,-0.0487 0.08725,-0.14573 0.113441,-0.62268 0.02569,-0.4766 0.04341,-1.33274 0.05215,-1.81392 0.0084,-0.48124 0.0084,-0.58717 0.0042,-0.68418 -0.0042,-0.097 -0.01261,-0.18562 -0.317608,-0.18984 z m -29.382426,-0.0966 c 0.30898,-0.004 0.917961,0.0752 1.474298,0.17641 0.556132,0.1016 1.059198,0.22548 1.51823,0.35779 0.459133,0.13226 0.874025,0.27382 1.209573,0.41924 0.335364,0.14573 0.591237,0.29567 0.803098,0.46341 0.211841,0.16797 0.379772,0.35357 0.547512,0.5874 0.167624,0.23392 0.335556,0.51625 0.459331,0.77235 0.123478,0.25617 0.202714,0.4855 0.238034,0.69734 0.03528,0.21207 0.02684,0.40619 2.03e-4,0.57389 -0.02646,0.16759 -0.07083,0.3091 -0.1193,0.38388 -0.04859,0.0752 -0.101666,0.084 -0.229405,0.0794 -0.12805,-0.004 -0.331298,-0.0231 -1.200745,-0.19442 -0.869561,-0.17181 -2.405647,-0.49851 -3.29276,-0.68401 -0.887217,-0.1856 -1.125765,-0.22932 -1.280193,-0.25156 -0.154548,-0.0231 -0.225149,-0.0231 -0.278032,-0.0705 -0.05308,-0.0487 -0.08836,-0.14572 -0.114743,-0.62271 -0.02646,-0.47656 -0.04426,-1.33276 -0.05285,-1.81388 -0.0088,-0.48124 -0.0088,-0.58721 -0.0042,-0.6842 0.0042,-0.097 0.01302,-0.1856 0.322172,-0.18982 z m 7.211978,-13.85466 c 1.059198,-0.11462 3.036765,-0.25579 4.80247,-0.34399 1.765403,-0.0886 3.319045,-0.12384 4.705166,-0.0974 1.385919,0.0269 2.60432,0.11462 3.681277,0.22089 1.076954,0.1058 2.012874,0.22933 2.59549,0.32674 0.582514,0.097 0.812234,0.16758 1.006339,0.29988 0.194124,0.13226 0.353119,0.32673 0.476783,0.66206 0.123492,0.33518 0.21165,0.81225 0.379582,1.41252 0.167739,0.60017 0.414892,1.3242 0.617925,2.0304 0.202943,0.70613 0.362016,1.39488 0.476787,1.86282 0.114662,0.46775 0.185265,0.71495 0.211956,0.91785 0.02647,0.20325 0.0084,0.36201 -0.220775,0.37084 -0.229712,0.008 -0.670993,-0.13266 -1.589155,-0.265 -0.918171,-0.13225 -2.312918,-0.25617 -3.689908,-0.37966 -1.377298,-0.12344 -2.737038,-0.24697 -4.070092,-0.30909 -1.332954,-0.0617 -2.639324,-0.0617 -3.80476,-0.0345 -1.165334,0.0269 -2.189224,0.0794 -3.107385,0.15033 -0.918164,0.0705 -1.73009,0.15877 -2.55988,0.22089 -0.829989,0.0617 -1.67753,0.0966 -2.277901,0.13226 -0.600274,0.0345 -0.953473,0.0705 -1.130026,0.0529 -0.17656,-0.0191 -0.17656,-0.0882 0.04425,-1.09452 0.220777,-1.00652 0.662066,-2.9486 0.953473,-4.03439 0.291416,-1.08586 0.432653,-1.31549 0.600373,-1.47429 0.167624,-0.15915 0.361941,-0.24735 0.529653,-0.33556 0.167739,-0.0882 0.308979,-0.17679 1.368365,-0.29145 z"
       style="fill:#ffffff;fill-rule:evenodd;stroke:#ffffff;stroke-width:0.21916583;stroke-linecap:butt;stroke-linejoin:miter;stroke-dasharray:none"
       id="path6"
       inkscape:connector-curvature="0" />
    <path
       d="m 58.788664,128.76613 c -0.395208,0.0875 -0.633552,0.29912 -0.871897,0.4095 -0.238341,0.11041 -0.476685,0.11923 -0.679817,0.1016 -0.203021,-0.0191 -0.370876,-0.0617 -0.591548,-0.18562 -0.2207,-0.12344 -0.494237,-0.32635 -0.666426,-0.50751 -0.172073,-0.18102 -0.242712,-0.33977 -0.300121,-0.52531 -0.05734,-0.1856 -0.101476,-0.39733 -0.123478,-0.60921 -0.02225,-0.21169 -0.02225,-0.42361 -0.01343,-0.58249 0.0088,-0.15876 0.02646,-0.265 0.184881,-0.30832 0.158382,-0.0433 0.457713,-0.0231 0.843687,0.008 0.385977,0.0307 0.858604,0.0724 1.228344,0.15417 0.369725,0.0816 0.636597,0.20325 0.771445,0.26575 0.134954,0.0621 0.137904,0.0653 0.187912,0.10621 0.05012,0.0414 0.147222,0.12086 0.186914,0.19558 0.03977,0.0751 0.02185,0.14572 0.03835,0.24352 0.01649,0.0982 0.06677,0.22319 0.06259,0.38004 -0.0042,0.15685 -0.06301,0.34514 -0.180395,0.66896"
       style="fill:#ffffff;fill-rule:evenodd;stroke:#ffffff;stroke-width:0.21916583;stroke-linecap:butt;stroke-linejoin:miter;stroke-dasharray:none"
       id="path8"
       inkscape:connector-curvature="0" />
    <path
       d="m 84.761233,128.82334 c 0.388105,0.0871 0.622189,0.29913 0.856373,0.40942 0.234084,0.11042 0.468264,0.11923 0.667744,0.1016 0.199377,-0.0191 0.364241,-0.0617 0.58099,-0.1856 0.216712,-0.12344 0.485514,-0.32675 0.654657,-0.50752 0.169043,-0.18101 0.238456,-0.34016 0.294751,-0.52538 0.05629,-0.18523 0.09974,-0.39734 0.121335,-0.60911 0.02185,-0.21207 0.02185,-0.42371 0.01302,-0.58253 -0.0084,-0.15876 -0.02569,-0.26498 -0.181507,-0.30832 -0.155659,-0.0433 -0.449595,-0.0231 -0.828668,0.008 -0.37916,0.0307 -0.843488,0.0724 -1.206632,0.15416 -0.363244,0.0817 -0.625334,0.20363 -0.757746,0.26576 -0.132499,0.0621 -0.135456,0.0652 -0.184576,0.10621 -0.0492,0.041 -0.144576,0.12045 -0.183653,0.19558 -0.03896,0.0752 -0.02147,0.14573 -0.03759,0.24352 -0.0161,0.0982 -0.06554,0.22319 -0.06139,0.38003 0.0042,0.15686 0.06179,0.34515 0.177174,0.66905"
       style="fill:#ffffff;fill-rule:evenodd;stroke:#ffffff;stroke-width:0.21916583;stroke-linecap:butt;stroke-linejoin:miter;stroke-dasharray:none"
       id="path10"
       inkscape:connector-curvature="0" />
    <text
       x="44.602432"
       y="167.60138"
       id="text14"
       style="font-size:12.17587948px;stroke-width:1.01465654">
      <tspan
         font-size="14.5000"
         id="tspan12"
         style="font-style:normal;font-variant:normal;font-weight:normal;font-stretch:normal;font-size:14.71252155px;font-family:Ubuntu;-inkscape-font-specification:Ubuntu;fill:#26a69a;stroke:#26a69a;stroke-width:1.01465654;stroke-opacity:1"><tspan
   style="font-style:normal;font-variant:normal;font-weight:normal;font-stretch:normal;font-family:Ubuntu;-inkscape-font-specification:Ubuntu;stroke:none"
   id="tspan883">auto</tspan>
car</tspan>
    </text>
  </g>
</svg>
